ply
format ascii 1.0
comment Created by Blender 2.81 (sub 16) - www.blender.org, source file: 'Enviroment.blend'
element vertex 30
property float x
property float y
property float z
property float nx
property float ny
property float nz
property float s
property float t
element face 8
property list uchar uint vertex_indices
end_header
1.000000 2.000000 -4.000000 1.000000 -0.000000 0.000000 0.025118 0.968252
1.000000 2.000000 1.000000 1.000000 -0.000000 0.000000 0.025118 0.354506
1.000000 0.000000 1.000000 1.000000 -0.000000 0.000000 0.975003 0.354506
1.000000 0.000000 -4.000000 1.000000 -0.000000 0.000000 0.975003 0.968251
0.900000 2.000000 1.095246 0.000000 -0.000000 1.000000 0.025118 0.294590
0.000000 2.000000 1.095246 0.000000 -0.000000 1.000000 0.025118 0.018404
0.000000 0.000000 1.095246 0.000000 -0.000000 1.000000 0.975003 0.018405
0.900000 0.000000 1.095246 0.000000 -0.000000 1.000000 0.975003 0.294591
0.900000 0.000000 1.000000 1.000000 0.000000 0.000000 0.975003 0.323819
0.900000 2.000000 1.000000 1.000000 0.000000 0.000000 0.025118 0.323819
0.900000 2.000000 1.095246 1.000000 0.000000 0.000000 0.025118 0.294590
0.900000 0.000000 1.095246 1.000000 0.000000 0.000000 0.975003 0.294591
1.000000 2.000000 1.000000 0.000000 -0.000000 1.000000 0.025118 0.354506
0.900000 2.000000 1.000000 0.000000 -0.000000 1.000000 0.025118 0.323819
0.900000 0.000000 1.000000 0.000000 -0.000000 1.000000 0.975003 0.323819
1.000000 0.000000 1.000000 0.000000 -0.000000 1.000000 0.975003 0.354506
-1.000000 2.000000 -4.000000 -1.000000 0.000000 -0.000000 0.025118 0.968252
-1.000000 0.000000 -4.000000 -1.000000 0.000000 -0.000000 0.975003 0.968251
-1.000000 0.000000 1.000000 -1.000000 0.000000 -0.000000 0.975003 0.354506
-1.000000 2.000000 1.000000 -1.000000 0.000000 -0.000000 0.025118 0.354506
-0.900000 2.000000 1.095246 0.000000 0.000000 1.000000 0.025118 0.294590
-0.900000 0.000000 1.095246 0.000000 0.000000 1.000000 0.975003 0.294591
-0.900000 0.000000 1.000000 -1.000000 -0.000000 0.000000 0.975003 0.323819
-0.900000 0.000000 1.095246 -1.000000 -0.000000 0.000000 0.975003 0.294591
-0.900000 2.000000 1.095246 -1.000000 -0.000000 0.000000 0.025118 0.294590
-0.900000 2.000000 1.000000 -1.000000 -0.000000 0.000000 0.025118 0.323819
-1.000000 2.000000 1.000000 0.000000 0.000000 1.000000 0.025118 0.354506
-1.000000 0.000000 1.000000 0.000000 0.000000 1.000000 0.975003 0.354506
-0.900000 0.000000 1.000000 0.000000 0.000000 1.000000 0.975003 0.323819
-0.900000 2.000000 1.000000 0.000000 0.000000 1.000000 0.025118 0.323819
4 0 1 2 3
4 4 5 6 7
4 8 9 10 11
4 12 13 14 15
4 16 17 18 19
4 20 21 6 5
4 22 23 24 25
4 26 27 28 29
