ply
format ascii 1.0
comment Created by Blender 2.81 (sub 16) - www.blender.org, source file: 'Enviroment.blend'
element vertex 13
property float x
property float y
property float z
property float nx
property float ny
property float nz
property float s
property float t
element face 6
property list uchar uint vertex_indices
end_header
1.000000 0.000000 -4.000000 0.000000 -1.000000 0.000000 0.375000 0.750000
1.000000 0.000000 1.000000 0.000000 -1.000000 0.000000 0.625000 0.750000
0.900000 0.000000 1.000000 0.000000 -1.000000 0.000000 0.625000 0.781144
0.850849 0.000000 -4.000000 0.000000 -1.000000 0.000000 0.375000 0.781144
0.000000 0.000000 1.000000 0.000000 -1.000000 -0.000000 0.625000 0.875000
0.900000 0.000000 1.095246 0.000000 -1.000000 -0.000000 0.625000 0.781144
0.000000 0.000000 1.095246 0.000000 -1.000000 -0.000000 0.625000 0.875000
0.000000 0.000000 -4.000000 0.000000 -1.000000 0.000000 0.375000 0.875000
-1.000000 0.000000 -4.000000 0.000000 -1.000000 -0.000000 0.375000 0.750000
-0.850849 0.000000 -4.000000 0.000000 -1.000000 -0.000000 0.375000 0.781144
-0.900000 0.000000 1.000000 0.000000 -1.000000 -0.000000 0.625000 0.781144
-1.000000 0.000000 1.000000 0.000000 -1.000000 -0.000000 0.625000 0.750000
-0.900000 0.000000 1.095246 0.000000 -1.000000 0.000000 0.625000 0.781144
4 0 1 2 3
4 4 2 5 6
4 3 2 4 7
4 8 9 10 11
4 4 6 12 10
4 9 7 4 10
